<?xml version="1.0" encoding="UTF-8" standalone="no"?>
<!DOCTYPE svg PUBLIC "-//W3C//DTD SVG 1.1//EN"
 "http://www.w3.org/Graphics/SVG/1.1/DTD/svg11.dtd">
<!-- Generated by graphviz version 2.36.0 (20140111.2315)
 -->
<!-- Title: G Pages: 1 -->
<svg width="703pt" height="121pt"
 viewBox="0.00 0.00 703.20 121.27" xmlns="http://www.w3.org/2000/svg" xmlns:xlink="http://www.w3.org/1999/xlink">
<g id="graph0" class="graph" transform="scale(1 1) rotate(0) translate(21.6 99.6696)">
<title>G</title>
<polygon fill="#111111" stroke="none" points="-21.6,21.6 -21.6,-99.6696 681.6,-99.6696 681.6,21.6 -21.6,21.6"/>
<!-- ../index.js -->
<g id="node1" class="node"><title>../index.js</title>
<path fill="none" stroke="#c6c5fe" d="M204.333,-37.5696C204.333,-37.5696 143.667,-37.5696 143.667,-37.5696 139.833,-37.5696 136,-33.7363 136,-29.9029 136,-29.9029 136,-22.2363 136,-22.2363 136,-18.4029 139.833,-14.5696 143.667,-14.5696 143.667,-14.5696 204.333,-14.5696 204.333,-14.5696 208.167,-14.5696 212,-18.4029 212,-22.2363 212,-22.2363 212,-29.9029 212,-29.9029 212,-33.7363 208.167,-37.5696 204.333,-37.5696"/>
<text text-anchor="middle" x="174" y="-22.3696" font-family="Arial" font-size="14.00" fill="#c6c5fe">../index.js</text>
</g>
<!-- ../lib/cmd/start.js -->
<g id="node2" class="node"><title>../lib/cmd/start.js</title>
<path fill="none" stroke="#c6c5fe" d="M358.333,-78.5696C358.333,-78.5696 255.667,-78.5696 255.667,-78.5696 251.833,-78.5696 248,-74.7363 248,-70.9029 248,-70.9029 248,-63.2363 248,-63.2363 248,-59.4029 251.833,-55.5696 255.667,-55.5696 255.667,-55.5696 358.333,-55.5696 358.333,-55.5696 362.167,-55.5696 366,-59.4029 366,-63.2363 366,-63.2363 366,-70.9029 366,-70.9029 366,-74.7363 362.167,-78.5696 358.333,-78.5696"/>
<text text-anchor="middle" x="307" y="-63.3696" font-family="Arial" font-size="14.00" fill="#c6c5fe">../lib/cmd/start.js</text>
</g>
<!-- ../index.js&#45;&gt;../lib/cmd/start.js -->
<g id="edge1" class="edge"><title>../index.js&#45;&gt;../lib/cmd/start.js</title>
<path fill="none" stroke="#757575" d="M211.143,-37.3816C226.32,-42.1317 244.149,-47.7117 260.229,-52.7442"/>
<polygon fill="#757575" stroke="#757575" points="259.386,-56.1478 269.975,-55.7945 261.477,-49.4674 259.386,-56.1478"/>
</g>
<!-- ../lib/cmd/stop.js -->
<g id="node3" class="node"><title>../lib/cmd/stop.js</title>
<path fill="none" stroke="#c6c5fe" d="M357.833,-37.5696C357.833,-37.5696 256.167,-37.5696 256.167,-37.5696 252.333,-37.5696 248.5,-33.7363 248.5,-29.9029 248.5,-29.9029 248.5,-22.2363 248.5,-22.2363 248.5,-18.4029 252.333,-14.5696 256.167,-14.5696 256.167,-14.5696 357.833,-14.5696 357.833,-14.5696 361.667,-14.5696 365.5,-18.4029 365.5,-22.2363 365.5,-22.2363 365.5,-29.9029 365.5,-29.9029 365.5,-33.7363 361.667,-37.5696 357.833,-37.5696"/>
<text text-anchor="middle" x="307" y="-22.3696" font-family="Arial" font-size="14.00" fill="#c6c5fe">../lib/cmd/stop.js</text>
</g>
<!-- ../index.js&#45;&gt;../lib/cmd/stop.js -->
<g id="edge2" class="edge"><title>../index.js&#45;&gt;../lib/cmd/stop.js</title>
<path fill="none" stroke="#757575" d="M212.189,-26.0696C220.323,-26.0696 229.178,-26.0696 238.093,-26.0696"/>
<polygon fill="#757575" stroke="#757575" points="238.148,-29.5697 248.148,-26.0696 238.148,-22.5697 238.148,-29.5697"/>
</g>
<!-- ../lib/command.js -->
<g id="node4" class="node"><title>../lib/command.js</title>
<path fill="none" stroke="#c6c5fe" d="M516.333,-37.5696C516.333,-37.5696 409.667,-37.5696 409.667,-37.5696 405.833,-37.5696 402,-33.7363 402,-29.9029 402,-29.9029 402,-22.2363 402,-22.2363 402,-18.4029 405.833,-14.5696 409.667,-14.5696 409.667,-14.5696 516.333,-14.5696 516.333,-14.5696 520.167,-14.5696 524,-18.4029 524,-22.2363 524,-22.2363 524,-29.9029 524,-29.9029 524,-33.7363 520.167,-37.5696 516.333,-37.5696"/>
<text text-anchor="middle" x="463" y="-22.3696" font-family="Arial" font-size="14.00" fill="#c6c5fe">../lib/command.js</text>
</g>
<!-- ../index.js&#45;&gt;../lib/command.js -->
<g id="edge3" class="edge"><title>../index.js&#45;&gt;../lib/command.js</title>
<path fill="none" stroke="#757575" d="M206.921,-14.7875C219.544,-10.8827 234.289,-7.00258 248,-5.0696 299.931,2.25147 313.859,0.566656 366,-5.0696 380.332,-6.61879 395.66,-9.43293 409.767,-12.5083"/>
<polygon fill="#757575" stroke="#757575" points="409.265,-15.9831 419.791,-14.7794 410.812,-9.15617 409.265,-15.9831"/>
</g>
<!-- ../lib/cmd/start.js&#45;&gt;../lib/command.js -->
<g id="edge4" class="edge"><title>../lib/cmd/start.js&#45;&gt;../lib/command.js</title>
<path fill="none" stroke="#757575" d="M350.489,-55.7576C368.836,-50.873 390.479,-45.1109 409.792,-39.9691"/>
<polygon fill="#757575" stroke="#757575" points="410.887,-43.2996 419.65,-37.3446 409.086,-36.5352 410.887,-43.2996"/>
</g>
<!-- ../lib/cmd/stop.js&#45;&gt;../lib/command.js -->
<g id="edge5" class="edge"><title>../lib/cmd/stop.js&#45;&gt;../lib/command.js</title>
<path fill="none" stroke="#757575" d="M365.782,-26.0696C374.248,-26.0696 383.044,-26.0696 391.726,-26.0696"/>
<polygon fill="#757575" stroke="#757575" points="391.838,-29.5697 401.838,-26.0696 391.838,-22.5697 391.838,-29.5697"/>
</g>
<!-- ../lib/helper.js -->
<g id="node5" class="node"><title>../lib/helper.js</title>
<path fill="none" stroke="#cfffac" d="M651.833,-37.5696C651.833,-37.5696 568.167,-37.5696 568.167,-37.5696 564.333,-37.5696 560.5,-33.7363 560.5,-29.9029 560.5,-29.9029 560.5,-22.2363 560.5,-22.2363 560.5,-18.4029 564.333,-14.5696 568.167,-14.5696 568.167,-14.5696 651.833,-14.5696 651.833,-14.5696 655.667,-14.5696 659.5,-18.4029 659.5,-22.2363 659.5,-22.2363 659.5,-29.9029 659.5,-29.9029 659.5,-33.7363 655.667,-37.5696 651.833,-37.5696"/>
<text text-anchor="middle" x="610" y="-22.3696" font-family="Arial" font-size="14.00" fill="#cfffac">../lib/helper.js</text>
</g>
<!-- ../lib/command.js&#45;&gt;../lib/helper.js -->
<g id="edge6" class="edge"><title>../lib/command.js&#45;&gt;../lib/helper.js</title>
<path fill="none" stroke="#757575" d="M524.233,-26.0696C532.752,-26.0696 541.504,-26.0696 549.999,-26.0696"/>
<polygon fill="#757575" stroke="#757575" points="550.202,-29.5697 560.202,-26.0696 550.202,-22.5697 550.202,-29.5697"/>
</g>
<!-- egg&#45;scripts.js -->
<g id="node6" class="node"><title>egg&#45;scripts.js</title>
<path fill="none" stroke="#c6c5fe" d="M91.8333,-37.5696C91.8333,-37.5696 8.16667,-37.5696 8.16667,-37.5696 4.33333,-37.5696 0.5,-33.7363 0.5,-29.9029 0.5,-29.9029 0.5,-22.2363 0.5,-22.2363 0.5,-18.4029 4.33333,-14.5696 8.16667,-14.5696 8.16667,-14.5696 91.8333,-14.5696 91.8333,-14.5696 95.6667,-14.5696 99.5,-18.4029 99.5,-22.2363 99.5,-22.2363 99.5,-29.9029 99.5,-29.9029 99.5,-33.7363 95.6667,-37.5696 91.8333,-37.5696"/>
<text text-anchor="middle" x="50" y="-22.3696" font-family="Arial" font-size="14.00" fill="#c6c5fe">egg&#45;scripts.js</text>
</g>
<!-- egg&#45;scripts.js&#45;&gt;../index.js -->
<g id="edge7" class="edge"><title>egg&#45;scripts.js&#45;&gt;../index.js</title>
<path fill="none" stroke="#757575" d="M99.5682,-26.0696C108.166,-26.0696 117.108,-26.0696 125.671,-26.0696"/>
<polygon fill="#757575" stroke="#757575" points="125.88,-29.5697 135.88,-26.0696 125.88,-22.5697 125.88,-29.5697"/>
</g>
</g>
</svg>
